<?xml version="1.0" encoding="utf-8" standalone="no"?><svg xmlns="http://www.w3.org/2000/svg" xmlns:xlink="http://www.w3.org/1999/xlink" width="35.0774mm" height="35.0774mm" viewBox="4128.1 3006.3 138.1 138.1"><title>Photo View</title><rect x="4128.1" y="3006.3" width="138.1" height="138.1" fill="#000000" stroke="none"/><defs xmlns="http://www.w3.org/2000/svg" id="patterns"><pattern id="gridPattern" x="4000" y="3000" width="10" height="10" patternUnits="userSpaceOnUse"><rect id="gridCell" x="0" y="0" width="0.50001" height="0.50001" fill="#FFFFFF" stroke="none" fill-opacity="0.8"/></pattern><pattern id="gridPattern2" x="4000.50001" y="3000.50001" width="10" height="10" patternUnits="userSpaceOnUse"><path id="gridCell2" d="M10 0V10H-10" fill="none" stroke="#FFFFFF" stroke-width="0.50001" stroke-opacity="0.6"/></pattern><marker id="arrowOnStart" orient="auto" refY="0" refX="0" style="overflow:visible" markerUnits="strokeWidth"><path d="M 2,0 l 4,-2, 0,4 z" stroke-width="6"/></marker><marker id="arrowOnEnd" orient="auto" refY="0" refX="0" style="overflow:visible" markerUnits="strokeWidth"><path d="M -2,0 l -4,-2, 0,4 z" stroke-width="6"/></marker><marker id="arrowOnStartChrome" orient="auto" refY="0" refX="0" style="overflow:visible" markerUnits="strokeWidth"><path d="M 2,0 l 4,-2, 0,4 z" stroke-width="3" stroke="#FFFFFF"/></marker><marker id="arrowOnEndChrome" orient="auto" refY="0" refX="0" style="overflow:visible" markerUnits="strokeWidth"><path d="M -2,0 l -4,-2, 0,4 z" stroke-width="3" stroke="#FFFFFF"/></marker><svg id="icon-lock" title="Unlock" viewBox="0 0 20 20" height="20" width="20"><path stroke="#F0F" stroke-width="2" style="cursor:pointer;fill-opacity:.001;fill:#fff" d="M 5 7 C 5 -1 15 -1 15 7L1 7 1 19 19 19 19 7 15 7"/></svg><mask id="multiLayerMask" maskUnits="userSpaceOnUse" x="4138.1" y="3016.3" width="118.1" height="118.1"><path d="M4138.1102 3134.3898,4138.1102 3016.2795,4256.2205 3016.2795,4256.2205 3134.3898z" stroke="none" fill="white"/><g fill="black"><circle cx="4182.7949" cy="3055.6496" r="1.7992" stroke-width="0"/><circle cx="4148.5441" cy="3055.6496" r="1.7992" stroke-width="0"/><circle cx="4240.4724" cy="3084.3901" r="1.1811" stroke-width="0"/><circle cx="4240.4724" cy="3094.6255" r="1.1811" stroke-width="0"/><circle cx="4240.4674" cy="3073.4973" r="1.1811" stroke-width="0"/><circle cx="4240.4724" cy="3062.3425" r="1.1811" stroke-width="0"/><circle cx="4159.6063" cy="3078.9567" r="1.8" stroke-width="0"/><circle cx="4159.6063" cy="3088.9567" r="1.8" stroke-width="0"/><circle cx="4159.6063" cy="3098.9567" r="1.8" stroke-width="0"/><circle cx="4159.6063" cy="3108.9567" r="1.8" stroke-width="0"/><circle cx="4189.6063" cy="3108.9567" r="1.8" stroke-width="0"/><circle cx="4189.6063" cy="3098.9567" r="1.8" stroke-width="0"/><circle cx="4189.6063" cy="3088.9567" r="1.8" stroke-width="0"/><circle cx="4189.6063" cy="3078.9567" r="1.8" stroke-width="0"/><circle cx="4160.6693" cy="3032.0276" r="1.25" stroke-width="0"/><circle cx="4170.6693" cy="3032.0276" r="1.25" stroke-width="0"/><circle cx="4197.1654" cy="3032.0276" r="2.9528" stroke-width="0"/><circle cx="4197.1654" cy="3114.5276" r="2.9528" stroke-width="0"/></g></mask><mask id="topBoardSolderMask" maskUnits="userSpaceOnUse" x="4138.1" y="3016.3" width="118.1" height="118.1"><path d="M4138.1102 3134.3898,4138.1102 3016.2795,4256.2205 3016.2795,4256.2205 3134.3898z" stroke="none" fill="white"/><g fill="black"><ellipse cx="4182.7948" cy="3055.6496" rx="3.4" ry="3.4" stroke-width="0" c_etype="pad_outer"/><ellipse cx="4148.5428" cy="3055.6496" rx="3.4" ry="3.4" stroke-width="0" c_etype="pad_outer"/><ellipse cx="4240.4724" cy="3084.3896" rx="4.337" ry="4.337" stroke-width="0" c_etype="pad_outer"/><polygon points="4236.14 3098.96 4236.14 3090.29 4244.81 3090.29 4244.81 3098.96" stroke-width="0" c_etype="pad_outer"/><ellipse cx="4240.4674" cy="3073.4976" rx="4.337" ry="4.337" stroke-width="0" c_etype="pad_outer"/><ellipse cx="4240.4724" cy="3062.3426" rx="4.337" ry="4.337" stroke-width="0" c_etype="pad_outer"/><polygon points="4156.21 3082.36 4156.21 3075.56 4163.01 3075.56 4163.01 3082.36" stroke-width="0" c_etype="pad_outer"/><ellipse cx="4159.6063" cy="3088.9567" rx="3.4" ry="3.4" stroke-width="0" c_etype="pad_outer"/><ellipse cx="4159.6063" cy="3098.9567" rx="3.4" ry="3.4" stroke-width="0" c_etype="pad_outer"/><ellipse cx="4159.6063" cy="3108.9567" rx="3.4" ry="3.4" stroke-width="0" c_etype="pad_outer"/><ellipse cx="4189.6063" cy="3108.9567" rx="3.4" ry="3.4" stroke-width="0" c_etype="pad_outer"/><ellipse cx="4189.6063" cy="3098.9567" rx="3.4" ry="3.4" stroke-width="0" c_etype="pad_outer"/><ellipse cx="4189.6063" cy="3088.9567" rx="3.4" ry="3.4" stroke-width="0" c_etype="pad_outer"/><ellipse cx="4189.6063" cy="3078.9567" rx="3.4" ry="3.4" stroke-width="0" c_etype="pad_outer"/><polygon points="4158.23 3034.46 4158.23 3029.6 4163.11 3029.6 4163.11 3034.46" stroke-width="0" c_etype="pad_outer"/><polygon points="4168.23 3034.46 4168.23 3029.6 4173.11 3029.6 4173.11 3034.46" stroke-width="0" c_etype="pad_outer"/><ellipse cx="4197.1654" cy="3032.0276" rx="4.337" ry="4.337" stroke-width="0" c_etype="pad_outer"/><ellipse cx="4197.1654" cy="3114.5276" rx="4.337" ry="4.337" stroke-width="0" c_etype="pad_outer"/></g></mask><mask id="topSignalSolderMask" maskUnits="userSpaceOnUse" x="4138.1" y="3016.3" width="118.1" height="118.1"><path d="M4138.1102 3134.3898,4138.1102 3016.2795,4256.2205 3016.2795,4256.2205 3134.3898z" stroke="none" fill="white"/><g fill="black"><ellipse cx="4182.7948" cy="3055.6496" rx="3.4" ry="3.4" stroke-width="0" c_etype="pad_outer"/><ellipse cx="4148.5428" cy="3055.6496" rx="3.4" ry="3.4" stroke-width="0" c_etype="pad_outer"/><ellipse cx="4240.4724" cy="3084.3896" rx="4.337" ry="4.337" stroke-width="0" c_etype="pad_outer"/><polygon points="4236.14 3098.96 4236.14 3090.29 4244.81 3090.29 4244.81 3098.96" stroke-width="0" c_etype="pad_outer"/><ellipse cx="4240.4674" cy="3073.4976" rx="4.337" ry="4.337" stroke-width="0" c_etype="pad_outer"/><ellipse cx="4240.4724" cy="3062.3426" rx="4.337" ry="4.337" stroke-width="0" c_etype="pad_outer"/><polygon points="4156.21 3082.36 4156.21 3075.56 4163.01 3075.56 4163.01 3082.36" stroke-width="0" c_etype="pad_outer"/><ellipse cx="4159.6063" cy="3088.9567" rx="3.4" ry="3.4" stroke-width="0" c_etype="pad_outer"/><ellipse cx="4159.6063" cy="3098.9567" rx="3.4" ry="3.4" stroke-width="0" c_etype="pad_outer"/><ellipse cx="4159.6063" cy="3108.9567" rx="3.4" ry="3.4" stroke-width="0" c_etype="pad_outer"/><ellipse cx="4189.6063" cy="3108.9567" rx="3.4" ry="3.4" stroke-width="0" c_etype="pad_outer"/><ellipse cx="4189.6063" cy="3098.9567" rx="3.4" ry="3.4" stroke-width="0" c_etype="pad_outer"/><ellipse cx="4189.6063" cy="3088.9567" rx="3.4" ry="3.4" stroke-width="0" c_etype="pad_outer"/><ellipse cx="4189.6063" cy="3078.9567" rx="3.4" ry="3.4" stroke-width="0" c_etype="pad_outer"/><polygon points="4158.23 3034.46 4158.23 3029.6 4163.11 3029.6 4163.11 3034.46" stroke-width="0" c_etype="pad_outer"/><polygon points="4168.23 3034.46 4168.23 3029.6 4173.11 3029.6 4173.11 3034.46" stroke-width="0" c_etype="pad_outer"/><ellipse cx="4197.1654" cy="3032.0276" rx="4.337" ry="4.337" stroke-width="0" c_etype="pad_outer"/><ellipse cx="4197.1654" cy="3114.5276" rx="4.337" ry="4.337" stroke-width="0" c_etype="pad_outer"/></g></mask><mask id="bottomBoardSolderMask" maskUnits="userSpaceOnUse" x="4138.1" y="3016.3" width="118.1" height="118.1"><path d="M4138.1102 3134.3898,4138.1102 3016.2795,4256.2205 3016.2795,4256.2205 3134.3898z" stroke="none" fill="white"/><g fill="black"><ellipse cx="4182.7948" cy="3055.6496" rx="3.4" ry="3.4" stroke-width="0" c_etype="pad_outer"/><ellipse cx="4148.5428" cy="3055.6496" rx="3.4" ry="3.4" stroke-width="0" c_etype="pad_outer"/><ellipse cx="4240.4724" cy="3084.3896" rx="4.337" ry="4.337" stroke-width="0" c_etype="pad_outer"/><polygon points="4236.14 3098.96 4236.14 3090.29 4244.81 3090.29 4244.81 3098.96" stroke-width="0" c_etype="pad_outer"/><ellipse cx="4240.4674" cy="3073.4976" rx="4.337" ry="4.337" stroke-width="0" c_etype="pad_outer"/><ellipse cx="4240.4724" cy="3062.3426" rx="4.337" ry="4.337" stroke-width="0" c_etype="pad_outer"/><polygon points="4156.21 3082.36 4156.21 3075.56 4163.01 3075.56 4163.01 3082.36" stroke-width="0" c_etype="pad_outer"/><ellipse cx="4159.6063" cy="3088.9567" rx="3.4" ry="3.4" stroke-width="0" c_etype="pad_outer"/><ellipse cx="4159.6063" cy="3098.9567" rx="3.4" ry="3.4" stroke-width="0" c_etype="pad_outer"/><ellipse cx="4159.6063" cy="3108.9567" rx="3.4" ry="3.4" stroke-width="0" c_etype="pad_outer"/><ellipse cx="4189.6063" cy="3108.9567" rx="3.4" ry="3.4" stroke-width="0" c_etype="pad_outer"/><ellipse cx="4189.6063" cy="3098.9567" rx="3.4" ry="3.4" stroke-width="0" c_etype="pad_outer"/><ellipse cx="4189.6063" cy="3088.9567" rx="3.4" ry="3.4" stroke-width="0" c_etype="pad_outer"/><ellipse cx="4189.6063" cy="3078.9567" rx="3.4" ry="3.4" stroke-width="0" c_etype="pad_outer"/><polygon points="4158.23 3034.46 4158.23 3029.6 4163.11 3029.6 4163.11 3034.46" stroke-width="0" c_etype="pad_outer"/><polygon points="4168.23 3034.46 4168.23 3029.6 4173.11 3029.6 4173.11 3034.46" stroke-width="0" c_etype="pad_outer"/><ellipse cx="4197.1654" cy="3032.0276" rx="4.337" ry="4.337" stroke-width="0" c_etype="pad_outer"/><ellipse cx="4197.1654" cy="3114.5276" rx="4.337" ry="4.337" stroke-width="0" c_etype="pad_outer"/></g></mask><mask id="bottomSignalSolderMask" maskUnits="userSpaceOnUse" x="4138.1" y="3016.3" width="118.1" height="118.1"><path d="M4138.1102 3134.3898,4138.1102 3016.2795,4256.2205 3016.2795,4256.2205 3134.3898z" stroke="none" fill="white"/><g fill="black"><ellipse cx="4182.7948" cy="3055.6496" rx="3.4" ry="3.4" stroke-width="0" c_etype="pad_outer"/><ellipse cx="4148.5428" cy="3055.6496" rx="3.4" ry="3.4" stroke-width="0" c_etype="pad_outer"/><ellipse cx="4240.4724" cy="3084.3896" rx="4.337" ry="4.337" stroke-width="0" c_etype="pad_outer"/><polygon points="4236.14 3098.96 4236.14 3090.29 4244.81 3090.29 4244.81 3098.96" stroke-width="0" c_etype="pad_outer"/><ellipse cx="4240.4674" cy="3073.4976" rx="4.337" ry="4.337" stroke-width="0" c_etype="pad_outer"/><ellipse cx="4240.4724" cy="3062.3426" rx="4.337" ry="4.337" stroke-width="0" c_etype="pad_outer"/><polygon points="4156.21 3082.36 4156.21 3075.56 4163.01 3075.56 4163.01 3082.36" stroke-width="0" c_etype="pad_outer"/><ellipse cx="4159.6063" cy="3088.9567" rx="3.4" ry="3.4" stroke-width="0" c_etype="pad_outer"/><ellipse cx="4159.6063" cy="3098.9567" rx="3.4" ry="3.4" stroke-width="0" c_etype="pad_outer"/><ellipse cx="4159.6063" cy="3108.9567" rx="3.4" ry="3.4" stroke-width="0" c_etype="pad_outer"/><ellipse cx="4189.6063" cy="3108.9567" rx="3.4" ry="3.4" stroke-width="0" c_etype="pad_outer"/><ellipse cx="4189.6063" cy="3098.9567" rx="3.4" ry="3.4" stroke-width="0" c_etype="pad_outer"/><ellipse cx="4189.6063" cy="3088.9567" rx="3.4" ry="3.4" stroke-width="0" c_etype="pad_outer"/><ellipse cx="4189.6063" cy="3078.9567" rx="3.4" ry="3.4" stroke-width="0" c_etype="pad_outer"/><polygon points="4158.23 3034.46 4158.23 3029.6 4163.11 3029.6 4163.11 3034.46" stroke-width="0" c_etype="pad_outer"/><polygon points="4168.23 3034.46 4168.23 3029.6 4173.11 3029.6 4173.11 3034.46" stroke-width="0" c_etype="pad_outer"/><ellipse cx="4197.1654" cy="3032.0276" rx="4.337" ry="4.337" stroke-width="0" c_etype="pad_outer"/><ellipse cx="4197.1654" cy="3114.5276" rx="4.337" ry="4.337" stroke-width="0" c_etype="pad_outer"/></g></mask></defs><g xmlns="http://www.w3.org/2000/svg" id="g1" mask="url(#multiLayerMask)" class="photoview" transform="matrix(-1, 0, 0, 1, 8394.3310546875, 0)"><g id="layer_other" class="shapeBox"><path d="M4138.1102 3134.3898,4138.1102 3016.2795,4256.2205 3016.2795,4256.2205 3134.3898z" stroke="none" id="boardOutlineReal" fill="#80785F"/><path d="M4138.1102 3134.3898,4138.1102 3016.2795,4256.2205 3016.2795,4256.2205 3134.3898z" stroke="none" id="topBoardSolderReal" mask="url(#topBoardSolderMask)" fill="#002966" display="none"/><g id="topSignalReal" fill="#DCAA14" stroke="#DCAA14" display="none"><polyline points="4159.606 3088.957 4148.543 3077.894 4148.543 3055.6497" stroke-width="1" c_shapetype="line" stroke-linecap="round" fill="none" layerid="1" net="" id="gge305_1" locked="0"/><polyline points="4160.6693 3032.0276 4160.6693 3043.5231 4148.5428 3055.6496" stroke-width="1" c_shapetype="line" stroke-linecap="round" fill="none" layerid="1" net="" id="gge307_1" locked="0"/><polyline points="4197.1654 3032.0276 4170.6693 3032.0276" stroke-width="1" c_shapetype="line" stroke-linecap="round" fill="none" layerid="1" net="" id="gge308_1" locked="0"/><polyline points="4170.6694 3032.0276 4170.6694 3060.0204 4189.606 3078.957" stroke-width="1" c_shapetype="line" stroke-linecap="round" fill="none" layerid="1" net="" id="gge309_1" locked="0"/><polyline points="4159.606 3108.957 4165.1766 3114.5276 4197.1655 3114.5276" stroke-width="1" c_shapetype="line" stroke-linecap="round" fill="none" layerid="1" net="" id="gge326_1" locked="0"/><polyline points="4182.7948 3055.6496 4193.2283 3055.6496 4220.7874 3028.0905 4216.8504 3024.1535 4142.0472 3024.1535 4142.0472 3126.5157 4159.6063 3108.9567" stroke-width="1" c_shapetype="line" stroke-linecap="round" fill="none" layerid="1" net="" id="gge331_1" locked="0"/><polyline points="4189.6063 3088.9567 4225.0083 3088.9567 4240.4674 3073.4976" stroke-width="1" c_shapetype="line" stroke-linecap="round" fill="none" layerid="1" net="" id="gge332_1" locked="0"/><polyline points="4189.6063 3098.9567 4189.2913 3098.9567 4173.5433 3083.2087 4219.6063 3083.2087 4240.4724 3062.3426" stroke-width="1" c_shapetype="line" stroke-linecap="round" fill="none" layerid="1" net="" id="gge333_1" locked="0"/><polyline points="4189.606 3108.957 4191.7322 3106.8308" stroke-width="1" c_shapetype="line" stroke-linecap="round" fill="none" layerid="1" net="" id="gge339_1" locked="0"/><polyline points="4189.6063 3108.9567 4215.9053 3108.9567 4240.4724 3084.3896" stroke-width="1" c_shapetype="line" stroke-linecap="round" fill="none" layerid="1" net="" id="gge342_1" locked="0"/><polyline points="4197.17 3114.53 4224.55 3114.53 4236.54 3126.52 4240.47 3122.58 4240.47 3094.63" stroke-width="1" c_shapetype="line" stroke-linecap="round" fill="none" layerid="1" net="" id="gge343_1" locked="0"/><g c_partid="part_pad" c_etype="pinpart" layerid="11" id="gge9_11" c_origin="4182.7948,3055.6496" net="" c_rotation="180" c_width="6" c_height="6"><ellipse cx="4182.7948" cy="3055.6496" rx="3" ry="3" stroke-width="0" c_etype="pad_shell"/></g><g c_partid="part_pad" c_etype="pinpart" layerid="11" id="gge14_11" c_origin="4148.5428,3055.6496" net="" c_rotation="180" c_width="6" c_height="6"><ellipse cx="4148.5428" cy="3055.6496" rx="3" ry="3" stroke-width="0" c_etype="pad_shell"/></g><g c_partid="part_pad" c_etype="pinpart" layerid="11" id="gge26_11" c_origin="4240.4724,3084.3896" net="" c_rotation="90" c_width="7.874" c_height="7.874"><ellipse cx="4240.4724" cy="3084.3896" rx="3.937" ry="3.937" stroke-width="0" c_etype="pad_shell"/></g><g c_partid="part_pad" c_etype="pinpart" layerid="11" id="gge31_11" c_origin="4240.4724,3094.6256" net="" c_rotation="90" c_width="7.874" c_height="7.874"><polygon points="4236.5354 3098.5625 4236.5354 3090.6885 4244.4094 3090.6885 4244.4094 3098.5625" stroke-width="0" c_etype="pad_shell"/></g><g c_partid="part_pad" c_etype="pinpart" layerid="11" id="gge36_11" c_origin="4240.4674,3073.4976" net="" c_rotation="90" c_width="7.874" c_height="7.874"><ellipse cx="4240.4674" cy="3073.4976" rx="3.937" ry="3.937" stroke-width="0" c_etype="pad_shell"/></g><g c_partid="part_pad" c_etype="pinpart" layerid="11" id="gge41_11" c_origin="4240.4724,3062.3426" net="" c_rotation="90" c_width="7.874" c_height="7.874"><ellipse cx="4240.4724" cy="3062.3426" rx="3.937" ry="3.937" stroke-width="0" c_etype="pad_shell"/></g><g c_partid="part_pad" c_etype="pinpart" layerid="11" id="gge54_11" c_origin="4159.6063,3078.9567" net="" c_rotation="0" c_width="6" c_height="6"><polygon points="4156.6063 3075.9567 4162.6063 3075.9567 4162.6063 3081.9567 4156.6063 3081.9567" stroke-width="0" c_etype="pad_shell"/></g><g c_partid="part_pad" c_etype="pinpart" layerid="11" id="gge59_11" c_origin="4159.6063,3088.9567" net="" c_rotation="0" c_width="6" c_height="6"><ellipse cx="4159.6063" cy="3088.9567" rx="3" ry="3" stroke-width="0" c_etype="pad_shell"/></g><g c_partid="part_pad" c_etype="pinpart" layerid="11" id="gge64_11" c_origin="4159.6063,3098.9567" net="" c_rotation="0" c_width="6" c_height="6"><ellipse cx="4159.6063" cy="3098.9567" rx="3" ry="3" stroke-width="0" c_etype="pad_shell"/></g><g c_partid="part_pad" c_etype="pinpart" layerid="11" id="gge69_11" c_origin="4159.6063,3108.9567" net="" c_rotation="0" c_width="6" c_height="6"><ellipse cx="4159.6063" cy="3108.9567" rx="3" ry="3" stroke-width="0" c_etype="pad_shell"/></g><g c_partid="part_pad" c_etype="pinpart" layerid="11" id="gge74_11" c_origin="4189.6063,3108.9567" net="" c_rotation="0" c_width="6" c_height="6"><ellipse cx="4189.6063" cy="3108.9567" rx="3" ry="3" stroke-width="0" c_etype="pad_shell"/></g><g c_partid="part_pad" c_etype="pinpart" layerid="11" id="gge79_11" c_origin="4189.6063,3098.9567" net="" c_rotation="0" c_width="6" c_height="6"><ellipse cx="4189.6063" cy="3098.9567" rx="3" ry="3" stroke-width="0" c_etype="pad_shell"/></g><g c_partid="part_pad" c_etype="pinpart" layerid="11" id="gge84_11" c_origin="4189.6063,3088.9567" net="" c_rotation="0" c_width="6" c_height="6"><ellipse cx="4189.6063" cy="3088.9567" rx="3" ry="3" stroke-width="0" c_etype="pad_shell"/></g><g c_partid="part_pad" c_etype="pinpart" layerid="11" id="gge89_11" c_origin="4189.6063,3078.9567" net="" c_rotation="0" c_width="6" c_height="6"><ellipse cx="4189.6063" cy="3078.9567" rx="3" ry="3" stroke-width="0" c_etype="pad_shell"/></g><g c_partid="part_pad" c_etype="pinpart" layerid="11" id="gge101_11" c_origin="4160.6693,3032.0276" net="" c_rotation="180" c_width="4.07" c_height="4.07"><polygon points="4162.7073 3034.0606 4158.6323 3034.0606 4158.6323 3029.9956 4162.7073 3029.9956" stroke-width="0" c_etype="pad_shell"/></g><g c_partid="part_pad" c_etype="pinpart" layerid="11" id="gge106_11" c_origin="4170.6693,3032.0276" net="" c_rotation="180" c_width="4.07" c_height="4.07"><polygon points="4172.7073 3034.0606 4168.6323 3034.0606 4168.6323 3029.9956 4172.7073 3029.9956" stroke-width="0" c_etype="pad_shell"/></g><g c_partid="part_pad" c_etype="pinpart" layerid="11" id="gge119_11" c_origin="4197.1654,3032.0276" net="" c_rotation="90" c_width="7.874" c_height="7.874"><ellipse cx="4197.1654" cy="3032.0276" rx="3.937" ry="3.937" stroke-width="0" c_etype="pad_shell"/></g><g c_partid="part_pad" c_etype="pinpart" layerid="11" id="gge124_11" c_origin="4197.1654,3114.5276" net="" c_rotation="90" c_width="7.874" c_height="7.874"><ellipse cx="4197.1654" cy="3114.5276" rx="3.937" ry="3.937" stroke-width="0" c_etype="pad_shell"/></g></g><g id="topSignalSolderReal" mask="url(#topSignalSolderMask)" fill="#005CB6" stroke="#005CB6" display="none"><polyline points="4159.606 3088.957 4148.543 3077.894 4148.543 3055.6497" stroke-width="1" c_shapetype="line" stroke-linecap="round" fill="none" layerid="1" net="" id="gge305_1" locked="0"/><polyline points="4160.6693 3032.0276 4160.6693 3043.5231 4148.5428 3055.6496" stroke-width="1" c_shapetype="line" stroke-linecap="round" fill="none" layerid="1" net="" id="gge307_1" locked="0"/><polyline points="4197.1654 3032.0276 4170.6693 3032.0276" stroke-width="1" c_shapetype="line" stroke-linecap="round" fill="none" layerid="1" net="" id="gge308_1" locked="0"/><polyline points="4170.6694 3032.0276 4170.6694 3060.0204 4189.606 3078.957" stroke-width="1" c_shapetype="line" stroke-linecap="round" fill="none" layerid="1" net="" id="gge309_1" locked="0"/><polyline points="4159.606 3108.957 4165.1766 3114.5276 4197.1655 3114.5276" stroke-width="1" c_shapetype="line" stroke-linecap="round" fill="none" layerid="1" net="" id="gge326_1" locked="0"/><polyline points="4182.7948 3055.6496 4193.2283 3055.6496 4220.7874 3028.0905 4216.8504 3024.1535 4142.0472 3024.1535 4142.0472 3126.5157 4159.6063 3108.9567" stroke-width="1" c_shapetype="line" stroke-linecap="round" fill="none" layerid="1" net="" id="gge331_1" locked="0"/><polyline points="4189.6063 3088.9567 4225.0083 3088.9567 4240.4674 3073.4976" stroke-width="1" c_shapetype="line" stroke-linecap="round" fill="none" layerid="1" net="" id="gge332_1" locked="0"/><polyline points="4189.6063 3098.9567 4189.2913 3098.9567 4173.5433 3083.2087 4219.6063 3083.2087 4240.4724 3062.3426" stroke-width="1" c_shapetype="line" stroke-linecap="round" fill="none" layerid="1" net="" id="gge333_1" locked="0"/><polyline points="4189.606 3108.957 4191.7322 3106.8308" stroke-width="1" c_shapetype="line" stroke-linecap="round" fill="none" layerid="1" net="" id="gge339_1" locked="0"/><polyline points="4189.6063 3108.9567 4215.9053 3108.9567 4240.4724 3084.3896" stroke-width="1" c_shapetype="line" stroke-linecap="round" fill="none" layerid="1" net="" id="gge342_1" locked="0"/><polyline points="4197.17 3114.53 4224.55 3114.53 4236.54 3126.52 4240.47 3122.58 4240.47 3094.63" stroke-width="1" c_shapetype="line" stroke-linecap="round" fill="none" layerid="1" net="" id="gge343_1" locked="0"/><g c_partid="part_pad" c_etype="pinpart" layerid="11" id="gge9_11" c_origin="4182.7948,3055.6496" net="" c_rotation="180" c_width="6" c_height="6"><ellipse cx="4182.7948" cy="3055.6496" rx="3" ry="3" stroke-width="0" c_etype="pad_shell"/></g><g c_partid="part_pad" c_etype="pinpart" layerid="11" id="gge14_11" c_origin="4148.5428,3055.6496" net="" c_rotation="180" c_width="6" c_height="6"><ellipse cx="4148.5428" cy="3055.6496" rx="3" ry="3" stroke-width="0" c_etype="pad_shell"/></g><g c_partid="part_pad" c_etype="pinpart" layerid="11" id="gge26_11" c_origin="4240.4724,3084.3896" net="" c_rotation="90" c_width="7.874" c_height="7.874"><ellipse cx="4240.4724" cy="3084.3896" rx="3.937" ry="3.937" stroke-width="0" c_etype="pad_shell"/></g><g c_partid="part_pad" c_etype="pinpart" layerid="11" id="gge31_11" c_origin="4240.4724,3094.6256" net="" c_rotation="90" c_width="7.874" c_height="7.874"><polygon points="4236.5354 3098.5625 4236.5354 3090.6885 4244.4094 3090.6885 4244.4094 3098.5625" stroke-width="0" c_etype="pad_shell"/></g><g c_partid="part_pad" c_etype="pinpart" layerid="11" id="gge36_11" c_origin="4240.4674,3073.4976" net="" c_rotation="90" c_width="7.874" c_height="7.874"><ellipse cx="4240.4674" cy="3073.4976" rx="3.937" ry="3.937" stroke-width="0" c_etype="pad_shell"/></g><g c_partid="part_pad" c_etype="pinpart" layerid="11" id="gge41_11" c_origin="4240.4724,3062.3426" net="" c_rotation="90" c_width="7.874" c_height="7.874"><ellipse cx="4240.4724" cy="3062.3426" rx="3.937" ry="3.937" stroke-width="0" c_etype="pad_shell"/></g><g c_partid="part_pad" c_etype="pinpart" layerid="11" id="gge54_11" c_origin="4159.6063,3078.9567" net="" c_rotation="0" c_width="6" c_height="6"><polygon points="4156.6063 3075.9567 4162.6063 3075.9567 4162.6063 3081.9567 4156.6063 3081.9567" stroke-width="0" c_etype="pad_shell"/></g><g c_partid="part_pad" c_etype="pinpart" layerid="11" id="gge59_11" c_origin="4159.6063,3088.9567" net="" c_rotation="0" c_width="6" c_height="6"><ellipse cx="4159.6063" cy="3088.9567" rx="3" ry="3" stroke-width="0" c_etype="pad_shell"/></g><g c_partid="part_pad" c_etype="pinpart" layerid="11" id="gge64_11" c_origin="4159.6063,3098.9567" net="" c_rotation="0" c_width="6" c_height="6"><ellipse cx="4159.6063" cy="3098.9567" rx="3" ry="3" stroke-width="0" c_etype="pad_shell"/></g><g c_partid="part_pad" c_etype="pinpart" layerid="11" id="gge69_11" c_origin="4159.6063,3108.9567" net="" c_rotation="0" c_width="6" c_height="6"><ellipse cx="4159.6063" cy="3108.9567" rx="3" ry="3" stroke-width="0" c_etype="pad_shell"/></g><g c_partid="part_pad" c_etype="pinpart" layerid="11" id="gge74_11" c_origin="4189.6063,3108.9567" net="" c_rotation="0" c_width="6" c_height="6"><ellipse cx="4189.6063" cy="3108.9567" rx="3" ry="3" stroke-width="0" c_etype="pad_shell"/></g><g c_partid="part_pad" c_etype="pinpart" layerid="11" id="gge79_11" c_origin="4189.6063,3098.9567" net="" c_rotation="0" c_width="6" c_height="6"><ellipse cx="4189.6063" cy="3098.9567" rx="3" ry="3" stroke-width="0" c_etype="pad_shell"/></g><g c_partid="part_pad" c_etype="pinpart" layerid="11" id="gge84_11" c_origin="4189.6063,3088.9567" net="" c_rotation="0" c_width="6" c_height="6"><ellipse cx="4189.6063" cy="3088.9567" rx="3" ry="3" stroke-width="0" c_etype="pad_shell"/></g><g c_partid="part_pad" c_etype="pinpart" layerid="11" id="gge89_11" c_origin="4189.6063,3078.9567" net="" c_rotation="0" c_width="6" c_height="6"><ellipse cx="4189.6063" cy="3078.9567" rx="3" ry="3" stroke-width="0" c_etype="pad_shell"/></g><g c_partid="part_pad" c_etype="pinpart" layerid="11" id="gge101_11" c_origin="4160.6693,3032.0276" net="" c_rotation="180" c_width="4.07" c_height="4.07"><polygon points="4162.7073 3034.0606 4158.6323 3034.0606 4158.6323 3029.9956 4162.7073 3029.9956" stroke-width="0" c_etype="pad_shell"/></g><g c_partid="part_pad" c_etype="pinpart" layerid="11" id="gge106_11" c_origin="4170.6693,3032.0276" net="" c_rotation="180" c_width="4.07" c_height="4.07"><polygon points="4172.7073 3034.0606 4168.6323 3034.0606 4168.6323 3029.9956 4172.7073 3029.9956" stroke-width="0" c_etype="pad_shell"/></g><g c_partid="part_pad" c_etype="pinpart" layerid="11" id="gge119_11" c_origin="4197.1654,3032.0276" net="" c_rotation="90" c_width="7.874" c_height="7.874"><ellipse cx="4197.1654" cy="3032.0276" rx="3.937" ry="3.937" stroke-width="0" c_etype="pad_shell"/></g><g c_partid="part_pad" c_etype="pinpart" layerid="11" id="gge124_11" c_origin="4197.1654,3114.5276" net="" c_rotation="90" c_width="7.874" c_height="7.874"><ellipse cx="4197.1654" cy="3114.5276" rx="3.937" ry="3.937" stroke-width="0" c_etype="pad_shell"/></g></g><g id="topSilkLayer" fill="#FFFFFF" stroke="#FFFFFF" display="none"><polyline points="4175.1698 3055.6496 4177.6698 3055.6496" stroke-width="1" c_shapetype="line" stroke-linecap="round" fill="none" layerid="3" net="" id="gge4_3" locked="0"/><polyline points="4156.1698 3055.6496 4153.6698 3055.6496" stroke-width="1" c_shapetype="line" stroke-linecap="round" fill="none" layerid="3" net="" id="gge5_3" locked="0"/><polyline points="4174.9208 3060.5706 4156.4168 3060.5706 4156.4168 3050.7276 4174.9208 3050.7276 4174.9208 3060.5706" stroke-width="1" c_shapetype="line" stroke-linecap="round" fill="none" layerid="3" net="" id="gge8_3" locked="0"/><polyline points="4232.9924 3101.3186 4232.9924 3055.6496 4247.9534 3055.6496 4247.9534 3101.3186 4232.9924 3101.3186" stroke-width="1" c_shapetype="line" stroke-linecap="round" fill="none" layerid="3" net="" id="gge25_3" locked="0"/><polyline points="4177.6063 3077.9567 4177.6063 3077.9567 4184.6063 3077.9567 4184.6063 3109.9567 4164.6063 3109.9567 4164.6063 3077.9567 4171.6063 3077.9567 4171.6063 3077.9567" stroke-width="1" c_shapetype="line" stroke-linecap="round" fill="none" layerid="3" net="" id="gge52_3" locked="0"/><g c_partid="part_pcbtext" c_etype="" c_origin="4142.4649,3077.2295" c_rotation="0" c_mirror="" id="gge140_3" locked="0" layerid="3" c_shapetype="group" display="none"><path c_fontsize="4.5" c_fontfamily="" c_text="100KΩ ±1%" d="M 4143.7949 3077.0095 C 4143.7849 3076.7695 4143.7849 3076.5395 4143.7849 3076.3095 L 4143.7849 3074.9295 L 4143.8049 3074.2995 L 4143.7449 3074.2495 L 4142.8449 3074.4895 L 4142.8449 3074.6395 L 4143.4249 3074.5895 L 4143.4249 3076.3095 C 4143.4249 3076.5395 4143.4249 3076.7695 4143.4149 3077.0095 L 4142.7949 3077.0895 L 4142.7949 3077.2295 L 4144.4049 3077.2295 L 4144.4049 3077.0895 Z  M 4145.2249 3075.7395 C 4145.2249 3074.6895 4145.4849 3074.4095 4145.7649 3074.4095 C 4146.0349 3074.4095 4146.2849 3074.6895 4146.2849 3075.7395 C 4146.2849 3076.8295 4146.0349 3077.1195 4145.7649 3077.1195 C 4145.4849 3077.1195 4145.2249 3076.8295 4145.2249 3075.7395 Z  M 4145.7649 3074.2395 C 4145.2949 3074.2395 4144.8449 3074.6495 4144.8449 3075.7395 C 4144.8449 3076.8695 4145.2949 3077.2895 4145.7649 3077.2895 C 4146.2249 3077.2895 4146.6749 3076.8695 4146.6749 3075.7395 C 4146.6749 3074.6495 4146.2249 3074.2395 4145.7649 3074.2395 Z  M 4147.4249 3075.7395 C 4147.4249 3074.6895 4147.6849 3074.4095 4147.9649 3074.4095 C 4148.2249 3074.4095 4148.4849 3074.6895 4148.4849 3075.7395 C 4148.4849 3076.8295 4148.2249 3077.1195 4147.9649 3077.1195 C 4147.6849 3077.1195 4147.4249 3076.8295 4147.4249 3075.7395 Z  M 4147.9649 3074.2395 C 4147.4849 3074.2395 4147.0349 3074.6495 4147.0349 3075.7395 C 4147.0349 3076.8695 4147.4849 3077.2895 4147.9649 3077.2895 C 4148.4249 3077.2895 4148.8749 3076.8695 4148.8749 3075.7395 C 4148.8749 3074.6495 4148.4249 3074.2395 4147.9649 3074.2395 Z  M 4151.6349 3077.0395 L 4150.7249 3075.4095 L 4151.4649 3074.4995 L 4151.8849 3074.4495 L 4151.8849 3074.2995 L 4150.8849 3074.2995 L 4150.8849 3074.4495 L 4151.2249 3074.5095 L 4150.0549 3075.9595 L 4150.0549 3075.6595 C 4150.0549 3075.2695 4150.0549 3074.8695 4150.0649 3074.4895 L 4150.4749 3074.4495 L 4150.4749 3074.2995 L 4149.2449 3074.2995 L 4149.2449 3074.4495 L 4149.6549 3074.4895 C 4149.6649 3074.8795 4149.6649 3075.2695 4149.6649 3075.6595 L 4149.6649 3075.8695 C 4149.6649 3076.2695 4149.6649 3076.6495 4149.6549 3077.0295 L 4149.2449 3077.0795 L 4149.2449 3077.2295 L 4150.4749 3077.2295 L 4150.4749 3077.0795 L 4150.0649 3077.0295 C 4150.0549 3076.7395 4150.0549 3076.4595 4150.0549 3076.2095 L 4150.4849 3075.6895 L 4151.2149 3077.0295 L 4150.8449 3077.0795 L 4150.8449 3077.2295 L 4151.9749 3077.2295 L 4151.9749 3077.0795 Z  M 4154.7749 3076.4895 L 4154.6749 3076.9195 L 4154.0549 3076.9195 L 4154.0549 3076.9195 C 4154.5049 3076.5995 4154.8649 3076.1295 4154.8649 3075.5595 C 4154.8649 3074.6995 4154.2549 3074.2295 4153.5849 3074.2295 C 4152.8949 3074.2295 4152.2949 3074.6995 4152.2949 3075.5595 C 4152.2949 3076.1295 4152.6549 3076.5995 4153.1049 3076.9195 L 4153.1049 3076.9195 L 4152.4849 3076.9195 L 4152.3849 3076.4895 L 4152.1549 3076.4895 L 4152.1949 3077.2295 L 4153.3649 3077.2295 L 4153.3649 3076.9595 C 4152.9649 3076.6295 4152.7049 3076.1095 4152.7049 3075.5595 C 4152.7049 3074.9095 4153.0249 3074.4195 4153.5849 3074.4195 C 4154.1249 3074.4195 4154.4549 3074.9095 4154.4549 3075.5595 C 4154.4549 3076.1095 4154.1949 3076.6295 4153.7849 3076.9595 L 4153.7849 3077.2295 L 4154.9649 3077.2295 L 4155.0049 3076.4895 Z  M 4158.2849 3075.4795 L 4159.7049 3075.4795 L 4159.7049 3075.2995 L 4158.2849 3075.2995 L 4158.2849 3074.0795 L 4158.1149 3074.0795 L 4158.1149 3075.2995 L 4156.7049 3075.2995 L 4156.7049 3075.4795 L 4158.1149 3075.4795 L 4158.1149 3076.6995 L 4158.2849 3076.6995 Z  M 4156.7049 3077.1895 L 4159.7049 3077.1895 L 4159.7049 3077.0095 L 4156.7049 3077.0095 Z  M 4161.5249 3077.0095 C 4161.5249 3076.7695 4161.5249 3076.5395 4161.5249 3076.3095 L 4161.5249 3074.9295 L 4161.5349 3074.2995 L 4161.4749 3074.2495 L 4160.5749 3074.4895 L 4160.5749 3074.6395 L 4161.1649 3074.5895 L 4161.1649 3076.3095 C 4161.1649 3076.5395 4161.1549 3076.7695 4161.1549 3077.0095 L 4160.5249 3077.0895 L 4160.5249 3077.2295 L 4162.1449 3077.2295 L 4162.1449 3077.0895 Z  M 4163.3449 3077.3395 L 4165.3949 3074.3895 L 4165.2749 3074.2995 L 4163.2249 3077.2395 Z  M 4163.0049 3075.2495 C 4163.0049 3074.6095 4163.1549 3074.4695 4163.3149 3074.4695 C 4163.4649 3074.4695 4163.6149 3074.6195 4163.6149 3075.2495 C 4163.6149 3075.8795 4163.4649 3076.0295 4163.3149 3076.0295 C 4163.1549 3076.0295 4163.0049 3075.8795 4163.0049 3075.2495 Z  M 4163.3149 3074.3395 C 4163.0049 3074.3395 4162.7049 3074.6095 4162.7049 3075.2495 C 4162.7049 3075.8895 4163.0049 3076.1495 4163.3149 3076.1495 C 4163.6249 3076.1495 4163.9149 3075.8895 4163.9149 3075.2495 C 4163.9149 3074.6095 4163.6249 3074.3395 4163.3149 3074.3395 Z  M 4164.9449 3076.3695 C 4164.9449 3075.7295 4165.1049 3075.5895 4165.2549 3075.5895 C 4165.4149 3075.5895 4165.5649 3075.7395 4165.5649 3076.3695 C 4165.5649 3076.9895 4165.4149 3077.1395 4165.2549 3077.1395 C 4165.1049 3077.1395 4164.9449 3076.9895 4164.9449 3076.3695 Z  M 4165.2549 3075.4595 C 4164.9449 3075.4595 4164.6449 3075.7195 4164.6449 3076.3695 C 4164.6449 3077.0095 4164.9449 3077.2695 4165.2549 3077.2695 C 4165.5649 3077.2695 4165.8649 3077.0095 4165.8649 3076.3695 C 4165.8649 3075.7195 4165.5649 3075.4595 4165.2549 3075.4595 Z " stroke="none" stroke-width="0.6" c_note="note_name" style=""/></g><g c_partid="part_pcbtext" c_etype="" c_origin="4166.5398,3061.6496" c_rotation="180" c_mirror="" id="gge2_3" locked="0" layerid="3" c_shapetype="group"><path c_fontsize="4.5" c_fontfamily="" c_text="R2" d="M 4166.5398 3066.1896 L 4166.5398 3061.8996 M 4166.5398 3066.1896 L 4164.6998 3066.1896 L 4164.0898 3065.9896 L 4163.8798 3065.7796 L 4163.6798 3065.3696 L 4163.6798 3064.9596 L 4163.8798 3064.5496 L 4164.0898 3064.3496 L 4164.6998 3064.1496 L 4166.5398 3064.1496 M 4165.1098 3064.1496 L 4163.6798 3061.8996 M 4162.1198 3065.1696 L 4162.1198 3065.3696 L 4161.9198 3065.7796 L 4161.7098 3065.9896 L 4161.2998 3066.1896 L 4160.4898 3066.1896 L 4160.0798 3065.9896 L 4159.8698 3065.7796 L 4159.6698 3065.3696 L 4159.6698 3064.9596 L 4159.8698 3064.5496 L 4160.2798 3063.9396 L 4162.3298 3061.8996 L 4159.4598 3061.8996" fill="none" stroke-width="0.6" c_note="note_pre" style=""/></g><g c_partid="part_pcbtext" c_etype="" c_origin="4224.4673,3079.4719" c_rotation="90" c_mirror="" id="gge21_3" locked="0" layerid="3" c_shapetype="group" display="none"><path c_fontsize="4.5" c_fontfamily="" c_text="Led RGB" d="M 4219.9273 3079.4719 L 4224.2173 3079.4719 M 4224.2173 3079.4719 L 4224.2173 3077.0219 M 4222.5873 3075.6719 L 4222.5873 3073.2119 L 4222.1773 3073.2119 L 4221.7673 3073.4219 L 4221.5673 3073.6219 L 4221.3573 3074.0319 L 4221.3573 3074.6419 L 4221.5673 3075.0519 L 4221.9673 3075.4619 L 4222.5873 3075.6719 L 4222.9973 3075.6719 L 4223.6073 3075.4619 L 4224.0173 3075.0519 L 4224.2173 3074.6419 L 4224.2173 3074.0319 L 4224.0173 3073.6219 L 4223.6073 3073.2119 M 4219.9273 3069.4119 L 4224.2173 3069.4119 M 4221.9673 3069.4119 L 4221.5673 3069.8219 L 4221.3573 3070.2219 L 4221.3573 3070.8419 L 4221.5673 3071.2519 L 4221.9673 3071.6619 L 4222.5873 3071.8619 L 4222.9973 3071.8619 L 4223.6073 3071.6619 L 4224.0173 3071.2519 L 4224.2173 3070.8419 L 4224.2173 3070.2219 L 4224.0173 3069.8219 L 4223.6073 3069.4119 M 4219.9273 3064.9119 L 4224.2173 3064.9119 M 4219.9273 3064.9119 L 4219.9273 3063.0719 L 4220.1273 3062.4519 L 4220.3373 3062.2519 L 4220.7473 3062.0419 L 4221.1573 3062.0419 L 4221.5673 3062.2519 L 4221.7673 3062.4519 L 4221.9673 3063.0719 L 4221.9673 3064.9119 M 4221.9673 3063.4719 L 4224.2173 3062.0419 M 4220.9473 3057.6219 L 4220.5373 3057.8319 L 4220.1273 3058.2419 L 4219.9273 3058.6519 L 4219.9273 3059.4719 L 4220.1273 3059.8719 L 4220.5373 3060.2819 L 4220.9473 3060.4919 L 4221.5673 3060.6919 L 4222.5873 3060.6919 L 4223.1973 3060.4919 L 4223.6073 3060.2819 L 4224.0173 3059.8719 L 4224.2173 3059.4719 L 4224.2173 3058.6519 L 4224.0173 3058.2419 L 4223.6073 3057.8319 L 4223.1973 3057.6219 L 4222.5873 3057.6219 M 4222.5873 3058.6519 L 4222.5873 3057.6219 M 4219.9273 3056.2719 L 4224.2173 3056.2719 M 4219.9273 3056.2719 L 4219.9273 3054.4319 L 4220.1273 3053.8219 L 4220.3373 3053.6219 L 4220.7473 3053.4119 L 4221.1573 3053.4119 L 4221.5673 3053.6219 L 4221.7673 3053.8219 L 4221.9673 3054.4319 M 4221.9673 3056.2719 L 4221.9673 3054.4319 L 4222.1773 3053.8219 L 4222.3773 3053.6219 L 4222.7873 3053.4119 L 4223.4073 3053.4119 L 4223.8173 3053.6219 L 4224.0173 3053.8219 L 4224.2173 3054.4319 L 4224.2173 3056.2719" fill="none" stroke-width="0.6" c_note="note_name" style=""/></g><g c_partid="part_pcbtext" c_etype="" c_origin="4256.2205,3079.2716" c_rotation="90" c_mirror="" id="gge23_3" locked="0" layerid="3" c_shapetype="group"><path c_fontsize="4.5" c_fontfamily="" c_text="LED1" d="M 4251.6805 3079.2716 L 4255.9705 3079.2716 M 4255.9705 3079.2716 L 4255.9705 3076.8216 M 4251.6805 3075.4716 L 4255.9705 3075.4716 M 4251.6805 3075.4716 L 4251.6805 3072.8116 M 4253.7205 3075.4716 L 4253.7205 3073.8316 M 4255.9705 3075.4716 L 4255.9705 3072.8116 M 4251.6805 3071.4616 L 4255.9705 3071.4616 M 4251.6805 3071.4616 L 4251.6805 3070.0216 L 4251.8805 3069.4116 L 4252.2905 3069.0016 L 4252.7005 3068.8016 L 4253.3205 3068.5916 L 4254.3405 3068.5916 L 4254.9505 3068.8016 L 4255.3605 3069.0016 L 4255.7705 3069.4116 L 4255.9705 3070.0216 L 4255.9705 3071.4616 M 4252.5005 3067.2416 L 4252.2905 3066.8316 L 4251.6805 3066.2216 L 4255.9705 3066.2216" fill="none" stroke-width="0.6" c_note="note_pre" style=""/></g><g c_partid="part_pcbtext" c_etype="" c_origin="4174.6063,3066.9567" c_rotation="0" c_mirror="" id="gge48_3" locked="0" layerid="3" c_shapetype="group" display="none"><path c_fontsize="4.5" c_fontfamily="" c_text="ATTINY85 (THT)" d="M 4176.2463 3062.4167 L 4174.6063 3066.7067 M 4176.2463 3062.4167 L 4177.8763 3066.7067 M 4175.2163 3065.2767 L 4177.2663 3065.2767 M 4180.6563 3062.4167 L 4180.6563 3066.7067 M 4179.2263 3062.4167 L 4182.0963 3062.4167 M 4184.8763 3062.4167 L 4184.8763 3066.7067 M 4183.4463 3062.4167 L 4186.3063 3062.4167 M 4187.6563 3062.4167 L 4187.6563 3066.7067 M 4189.0063 3062.4167 L 4189.0063 3066.7067 M 4189.0063 3062.4167 L 4191.8663 3066.7067 M 4191.8663 3062.4167 L 4191.8663 3066.7067 M 4193.2163 3062.4167 L 4194.8563 3064.4567 L 4194.8563 3066.7067 M 4196.4963 3062.4167 L 4194.8563 3064.4567 M 4198.8663 3062.4167 L 4198.2563 3062.6167 L 4198.0463 3063.0267 L 4198.0463 3063.4367 L 4198.2563 3063.8467 L 4198.6563 3064.0567 L 4199.4763 3064.2567 L 4200.0963 3064.4567 L 4200.5063 3064.8667 L 4200.7063 3065.2767 L 4200.7063 3065.8967 L 4200.5063 3066.3067 L 4200.2963 3066.5067 L 4199.6863 3066.7067 L 4198.8663 3066.7067 L 4198.2563 3066.5067 L 4198.0463 3066.3067 L 4197.8463 3065.8967 L 4197.8463 3065.2767 L 4198.0463 3064.8667 L 4198.4563 3064.4567 L 4199.0663 3064.2567 L 4199.8863 3064.0567 L 4200.2963 3063.8467 L 4200.5063 3063.4367 L 4200.5063 3063.0267 L 4200.2963 3062.6167 L 4199.6863 3062.4167 L 4198.8663 3062.4167 M 4204.5063 3062.4167 L 4202.4663 3062.4167 L 4202.2563 3064.2567 L 4202.4663 3064.0567 L 4203.0763 3063.8467 L 4203.6963 3063.8467 L 4204.3063 3064.0567 L 4204.7163 3064.4567 L 4204.9163 3065.0767 L 4204.9163 3065.4867 L 4204.7163 3066.0967 L 4204.3063 3066.5067 L 4203.6963 3066.7067 L 4203.0763 3066.7067 L 4202.4663 3066.5067 L 4202.2563 3066.3067 L 4202.0563 3065.8967 M 4210.8563 3061.5967 L 4210.4463 3062.0067 L 4210.0363 3062.6167 L 4209.6263 3063.4367 L 4209.4163 3064.4567 L 4209.4163 3065.2767 L 4209.6263 3066.3067 L 4210.0363 3067.1167 L 4210.4463 3067.7367 L 4210.8563 3068.1467 M 4213.6363 3062.4167 L 4213.6363 3066.7067 M 4212.2063 3062.4167 L 4215.0663 3062.4167 M 4216.4163 3062.4167 L 4216.4163 3066.7067 M 4219.2763 3062.4167 L 4219.2763 3066.7067 M 4216.4163 3064.4567 L 4219.2763 3064.4567 M 4222.0563 3062.4167 L 4222.0563 3066.7067 M 4220.6263 3062.4167 L 4223.4963 3062.4167 M 4224.8463 3061.5967 L 4225.2563 3062.0067 L 4225.6563 3062.6167 L 4226.0663 3063.4367 L 4226.2763 3064.4567 L 4226.2763 3065.2767 L 4226.0663 3066.3067 L 4225.6563 3067.1167 L 4225.2563 3067.7367 L 4224.8463 3068.1467" fill="none" stroke-width="0.6" c_note="note_name" style=""/></g><g c_partid="part_pcbtext" c_etype="" c_origin="4174.6063,3073.9567" c_rotation="0" c_mirror="" id="gge50_3" locked="0" layerid="3" c_shapetype="group"><path c_fontsize="4.5" c_fontfamily="" c_text="U1" d="M 4174.6063 3069.4167 L 4174.6063 3072.4867 L 4174.8063 3073.0967 L 4175.2163 3073.5067 L 4175.8363 3073.7067 L 4176.2463 3073.7067 L 4176.8563 3073.5067 L 4177.2663 3073.0967 L 4177.4663 3072.4867 L 4177.4663 3069.4167 M 4178.8163 3070.2367 L 4179.2263 3070.0267 L 4179.8463 3069.4167 L 4179.8463 3073.7067" fill="none" stroke-width="0.6" c_note="note_pre" style=""/></g><g c_partid="part_pcbtext" c_etype="" c_origin="4122.4723,3054.026" c_rotation="0" c_mirror="" id="gge96_3" locked="0" layerid="3" c_shapetype="group" display="none"><path c_fontsize="4.5" c_fontfamily="" c_text="Photoresistor" d="M 4122.4723 3049.486 L 4122.4723 3053.776 M 4122.4723 3049.486 L 4124.3123 3049.486 L 4124.9223 3049.686 L 4125.1323 3049.896 L 4125.3323 3050.306 L 4125.3323 3050.916 L 4125.1323 3051.326 L 4124.9223 3051.526 L 4124.3123 3051.736 L 4122.4723 3051.736 M 4126.6823 3049.486 L 4126.6823 3053.776 M 4126.6823 3051.736 L 4127.3023 3051.126 L 4127.7123 3050.916 L 4128.3223 3050.916 L 4128.7323 3051.126 L 4128.9323 3051.736 L 4128.9323 3053.776 M 4131.3123 3050.916 L 4130.9023 3051.126 L 4130.4923 3051.526 L 4130.2823 3052.146 L 4130.2823 3052.556 L 4130.4923 3053.166 L 4130.9023 3053.576 L 4131.3123 3053.776 L 4131.9223 3053.776 L 4132.3323 3053.576 L 4132.7423 3053.166 L 4132.9423 3052.556 L 4132.9423 3052.146 L 4132.7423 3051.526 L 4132.3323 3051.126 L 4131.9223 3050.916 L 4131.3123 3050.916 M 4134.9123 3049.486 L 4134.9123 3052.966 L 4135.1123 3053.576 L 4135.5223 3053.776 L 4135.9323 3053.776 M 4134.2923 3050.916 L 4135.7223 3050.916 M 4138.3023 3050.916 L 4137.8923 3051.126 L 4137.4823 3051.526 L 4137.2823 3052.146 L 4137.2823 3052.556 L 4137.4823 3053.166 L 4137.8923 3053.576 L 4138.3023 3053.776 L 4138.9223 3053.776 L 4139.3223 3053.576 L 4139.7323 3053.166 L 4139.9423 3052.556 L 4139.9423 3052.146 L 4139.7323 3051.526 L 4139.3223 3051.126 L 4138.9223 3050.916 L 4138.3023 3050.916 M 4141.2923 3050.916 L 4141.2923 3053.776 M 4141.2923 3052.146 L 4141.4923 3051.526 L 4141.9023 3051.126 L 4142.3123 3050.916 L 4142.9223 3050.916 M 4144.2723 3052.146 L 4146.7323 3052.146 L 4146.7323 3051.736 L 4146.5223 3051.326 L 4146.3223 3051.126 L 4145.9123 3050.916 L 4145.3023 3050.916 L 4144.8923 3051.126 L 4144.4823 3051.526 L 4144.2723 3052.146 L 4144.2723 3052.556 L 4144.4823 3053.166 L 4144.8923 3053.576 L 4145.3023 3053.776 L 4145.9123 3053.776 L 4146.3223 3053.576 L 4146.7323 3053.166 M 4150.3323 3051.526 L 4150.1223 3051.126 L 4149.5123 3050.916 L 4148.9023 3050.916 L 4148.2823 3051.126 L 4148.0823 3051.526 L 4148.2823 3051.936 L 4148.6923 3052.146 L 4149.7223 3052.346 L 4150.1223 3052.556 L 4150.3323 3052.966 L 4150.3323 3053.166 L 4150.1223 3053.576 L 4149.5123 3053.776 L 4148.9023 3053.776 L 4148.2823 3053.576 L 4148.0823 3053.166 M 4151.6823 3049.486 L 4151.8823 3049.686 L 4152.0923 3049.486 L 4151.8823 3049.276 L 4151.6823 3049.486 M 4151.8823 3050.916 L 4151.8823 3053.776 M 4155.6923 3051.526 L 4155.4823 3051.126 L 4154.8723 3050.916 L 4154.2623 3050.916 L 4153.6423 3051.126 L 4153.4423 3051.526 L 4153.6423 3051.936 L 4154.0523 3052.146 L 4155.0723 3052.346 L 4155.4823 3052.556 L 4155.6923 3052.966 L 4155.6923 3053.166 L 4155.4823 3053.576 L 4154.8723 3053.776 L 4154.2623 3053.776 L 4153.6423 3053.576 L 4153.4423 3053.166 M 4157.6523 3049.486 L 4157.6523 3052.966 L 4157.8623 3053.576 L 4158.2723 3053.776 L 4158.6723 3053.776 M 4157.0423 3050.916 L 4158.4723 3050.916 M 4161.0523 3050.916 L 4160.6423 3051.126 L 4160.2323 3051.526 L 4160.0223 3052.146 L 4160.0223 3052.556 L 4160.2323 3053.166 L 4160.6423 3053.576 L 4161.0523 3053.776 L 4161.6623 3053.776 L 4162.0723 3053.576 L 4162.4823 3053.166 L 4162.6823 3052.556 L 4162.6823 3052.146 L 4162.4823 3051.526 L 4162.0723 3051.126 L 4161.6623 3050.916 L 4161.0523 3050.916 M 4164.0323 3050.916 L 4164.0323 3053.776 M 4164.0323 3052.146 L 4164.2423 3051.526 L 4164.6523 3051.126 L 4165.0623 3050.916 L 4165.6723 3050.916" fill="none" stroke-width="0.6" c_note="note_name" style=""/></g><g c_partid="part_pcbtext" c_etype="" c_origin="4165.6723,3042.0256" c_rotation="180" c_mirror="" id="gge98_3" locked="0" layerid="3" c_shapetype="group"><path c_fontsize="4.5" c_fontfamily="" c_text="R1" d="M 4165.6723 3046.5656 L 4165.6723 3042.2756 M 4165.6723 3046.5656 L 4163.8323 3046.5656 L 4163.2223 3046.3656 L 4163.0123 3046.1556 L 4162.8123 3045.7456 L 4162.8123 3045.3356 L 4163.0123 3044.9256 L 4163.2223 3044.7256 L 4163.8323 3044.5256 L 4165.6723 3044.5256 M 4164.2423 3044.5256 L 4162.8123 3042.2756 M 4161.4623 3045.7456 L 4161.0523 3045.9556 L 4160.4323 3046.5656 L 4160.4323 3042.2756" fill="none" stroke-width="0.6" c_note="note_pre" style=""/></g><path d="M 4171.6063 3077.9567 A 3 3 0 1 0 4177.6063 3077.9567" locked="0" c_shapetype="line" fill="none" stroke-width="1" c_helper_type="arc2" net="" layerid="3" id="gge53_3"/><circle cx="4165.6723" cy="3032.0256" r="8.5" stroke-width="1" fill="none" layerid="3" id="gge100_3" locked="0" c_shapetype="line"/></g><path d="M4138.1102 3134.3898,4138.1102 3016.2795,4256.2205 3016.2795,4256.2205 3134.3898z" stroke="none" id="bottomBoardSolderReal" mask="url(#bottomBoardSolderMask)" fill="#002966"/><g id="bottomSignalReal" fill="#DCAA14" stroke="#DCAA14"><g c_partid="part_pad" c_etype="pinpart" layerid="11" id="gge9_11" c_origin="4182.7948,3055.6496" net="" c_rotation="180" c_width="6" c_height="6"><ellipse cx="4182.7948" cy="3055.6496" rx="3" ry="3" stroke-width="0" c_etype="pad_hole"/></g><g c_partid="part_pad" c_etype="pinpart" layerid="11" id="gge14_11" c_origin="4148.5428,3055.6496" net="" c_rotation="180" c_width="6" c_height="6"><ellipse cx="4148.5428" cy="3055.6496" rx="3" ry="3" stroke-width="0" c_etype="pad_hole"/></g><g c_partid="part_pad" c_etype="pinpart" layerid="11" id="gge26_11" c_origin="4240.4724,3084.3896" net="" c_rotation="90" c_width="7.874" c_height="7.874"><ellipse cx="4240.4724" cy="3084.3896" rx="3.937" ry="3.937" stroke-width="0" c_etype="pad_hole"/></g><g c_partid="part_pad" c_etype="pinpart" layerid="11" id="gge31_11" c_origin="4240.4724,3094.6256" net="" c_rotation="90" c_width="7.874" c_height="7.874"><polygon points="4236.5354 3098.5625 4236.5354 3090.6885 4244.4094 3090.6885 4244.4094 3098.5625" stroke-width="0" c_etype="pad_outer"/></g><g c_partid="part_pad" c_etype="pinpart" layerid="11" id="gge36_11" c_origin="4240.4674,3073.4976" net="" c_rotation="90" c_width="7.874" c_height="7.874"><ellipse cx="4240.4674" cy="3073.4976" rx="3.937" ry="3.937" stroke-width="0" c_etype="pad_hole"/></g><g c_partid="part_pad" c_etype="pinpart" layerid="11" id="gge41_11" c_origin="4240.4724,3062.3426" net="" c_rotation="90" c_width="7.874" c_height="7.874"><ellipse cx="4240.4724" cy="3062.3426" rx="3.937" ry="3.937" stroke-width="0" c_etype="pad_hole"/></g><g c_partid="part_pad" c_etype="pinpart" layerid="11" id="gge54_11" c_origin="4159.6063,3078.9567" net="" c_rotation="0" c_width="6" c_height="6"><polygon points="4156.6063 3075.9567 4162.6063 3075.9567 4162.6063 3081.9567 4156.6063 3081.9567" stroke-width="0" c_etype="pad_outer"/></g><g c_partid="part_pad" c_etype="pinpart" layerid="11" id="gge59_11" c_origin="4159.6063,3088.9567" net="" c_rotation="0" c_width="6" c_height="6"><ellipse cx="4159.6063" cy="3088.9567" rx="3" ry="3" stroke-width="0" c_etype="pad_hole"/></g><g c_partid="part_pad" c_etype="pinpart" layerid="11" id="gge64_11" c_origin="4159.6063,3098.9567" net="" c_rotation="0" c_width="6" c_height="6"><ellipse cx="4159.6063" cy="3098.9567" rx="3" ry="3" stroke-width="0" c_etype="pad_hole"/></g><g c_partid="part_pad" c_etype="pinpart" layerid="11" id="gge69_11" c_origin="4159.6063,3108.9567" net="" c_rotation="0" c_width="6" c_height="6"><ellipse cx="4159.6063" cy="3108.9567" rx="3" ry="3" stroke-width="0" c_etype="pad_hole"/></g><g c_partid="part_pad" c_etype="pinpart" layerid="11" id="gge74_11" c_origin="4189.6063,3108.9567" net="" c_rotation="0" c_width="6" c_height="6"><ellipse cx="4189.6063" cy="3108.9567" rx="3" ry="3" stroke-width="0" c_etype="pad_hole"/></g><g c_partid="part_pad" c_etype="pinpart" layerid="11" id="gge79_11" c_origin="4189.6063,3098.9567" net="" c_rotation="0" c_width="6" c_height="6"><ellipse cx="4189.6063" cy="3098.9567" rx="3" ry="3" stroke-width="0" c_etype="pad_hole"/></g><g c_partid="part_pad" c_etype="pinpart" layerid="11" id="gge84_11" c_origin="4189.6063,3088.9567" net="" c_rotation="0" c_width="6" c_height="6"><ellipse cx="4189.6063" cy="3088.9567" rx="3" ry="3" stroke-width="0" c_etype="pad_hole"/></g><g c_partid="part_pad" c_etype="pinpart" layerid="11" id="gge89_11" c_origin="4189.6063,3078.9567" net="" c_rotation="0" c_width="6" c_height="6"><ellipse cx="4189.6063" cy="3078.9567" rx="3" ry="3" stroke-width="0" c_etype="pad_hole"/></g><g c_partid="part_pad" c_etype="pinpart" layerid="11" id="gge101_11" c_origin="4160.6693,3032.0276" net="" c_rotation="180" c_width="4.07" c_height="4.07"><polygon points="4162.7073 3034.0606 4158.6323 3034.0606 4158.6323 3029.9956 4162.7073 3029.9956" stroke-width="0" c_etype="pad_outer"/></g><g c_partid="part_pad" c_etype="pinpart" layerid="11" id="gge106_11" c_origin="4170.6693,3032.0276" net="" c_rotation="180" c_width="4.07" c_height="4.07"><polygon points="4172.7073 3034.0606 4168.6323 3034.0606 4168.6323 3029.9956 4172.7073 3029.9956" stroke-width="0" c_etype="pad_outer"/></g><g c_partid="part_pad" c_etype="pinpart" layerid="11" id="gge119_11" c_origin="4197.1654,3032.0276" net="" c_rotation="90" c_width="7.874" c_height="7.874"><ellipse cx="4197.1654" cy="3032.0276" rx="3.937" ry="3.937" stroke-width="0" c_etype="pad_hole"/></g><g c_partid="part_pad" c_etype="pinpart" layerid="11" id="gge124_11" c_origin="4197.1654,3114.5276" net="" c_rotation="90" c_width="7.874" c_height="7.874"><ellipse cx="4197.1654" cy="3114.5276" rx="3.937" ry="3.937" stroke-width="0" c_etype="pad_hole"/></g></g><g id="bottomSignalSolderReal" mask="url(#bottomSignalSolderMask)" fill="#005CB6" stroke="#005CB6"><g c_partid="part_pad" c_etype="pinpart" layerid="11" id="gge9_11" c_origin="4182.7948,3055.6496" net="" c_rotation="180" c_width="6" c_height="6"><ellipse cx="4182.7948" cy="3055.6496" rx="3" ry="3" stroke-width="0" c_etype="pad_hole"/></g><g c_partid="part_pad" c_etype="pinpart" layerid="11" id="gge14_11" c_origin="4148.5428,3055.6496" net="" c_rotation="180" c_width="6" c_height="6"><ellipse cx="4148.5428" cy="3055.6496" rx="3" ry="3" stroke-width="0" c_etype="pad_hole"/></g><g c_partid="part_pad" c_etype="pinpart" layerid="11" id="gge26_11" c_origin="4240.4724,3084.3896" net="" c_rotation="90" c_width="7.874" c_height="7.874"><ellipse cx="4240.4724" cy="3084.3896" rx="3.937" ry="3.937" stroke-width="0" c_etype="pad_hole"/></g><g c_partid="part_pad" c_etype="pinpart" layerid="11" id="gge31_11" c_origin="4240.4724,3094.6256" net="" c_rotation="90" c_width="7.874" c_height="7.874"><polygon points="4236.5354 3098.5625 4236.5354 3090.6885 4244.4094 3090.6885 4244.4094 3098.5625" stroke-width="0" c_etype="pad_outer"/></g><g c_partid="part_pad" c_etype="pinpart" layerid="11" id="gge36_11" c_origin="4240.4674,3073.4976" net="" c_rotation="90" c_width="7.874" c_height="7.874"><ellipse cx="4240.4674" cy="3073.4976" rx="3.937" ry="3.937" stroke-width="0" c_etype="pad_hole"/></g><g c_partid="part_pad" c_etype="pinpart" layerid="11" id="gge41_11" c_origin="4240.4724,3062.3426" net="" c_rotation="90" c_width="7.874" c_height="7.874"><ellipse cx="4240.4724" cy="3062.3426" rx="3.937" ry="3.937" stroke-width="0" c_etype="pad_hole"/></g><g c_partid="part_pad" c_etype="pinpart" layerid="11" id="gge54_11" c_origin="4159.6063,3078.9567" net="" c_rotation="0" c_width="6" c_height="6"><polygon points="4156.6063 3075.9567 4162.6063 3075.9567 4162.6063 3081.9567 4156.6063 3081.9567" stroke-width="0" c_etype="pad_outer"/></g><g c_partid="part_pad" c_etype="pinpart" layerid="11" id="gge59_11" c_origin="4159.6063,3088.9567" net="" c_rotation="0" c_width="6" c_height="6"><ellipse cx="4159.6063" cy="3088.9567" rx="3" ry="3" stroke-width="0" c_etype="pad_hole"/></g><g c_partid="part_pad" c_etype="pinpart" layerid="11" id="gge64_11" c_origin="4159.6063,3098.9567" net="" c_rotation="0" c_width="6" c_height="6"><ellipse cx="4159.6063" cy="3098.9567" rx="3" ry="3" stroke-width="0" c_etype="pad_hole"/></g><g c_partid="part_pad" c_etype="pinpart" layerid="11" id="gge69_11" c_origin="4159.6063,3108.9567" net="" c_rotation="0" c_width="6" c_height="6"><ellipse cx="4159.6063" cy="3108.9567" rx="3" ry="3" stroke-width="0" c_etype="pad_hole"/></g><g c_partid="part_pad" c_etype="pinpart" layerid="11" id="gge74_11" c_origin="4189.6063,3108.9567" net="" c_rotation="0" c_width="6" c_height="6"><ellipse cx="4189.6063" cy="3108.9567" rx="3" ry="3" stroke-width="0" c_etype="pad_hole"/></g><g c_partid="part_pad" c_etype="pinpart" layerid="11" id="gge79_11" c_origin="4189.6063,3098.9567" net="" c_rotation="0" c_width="6" c_height="6"><ellipse cx="4189.6063" cy="3098.9567" rx="3" ry="3" stroke-width="0" c_etype="pad_hole"/></g><g c_partid="part_pad" c_etype="pinpart" layerid="11" id="gge84_11" c_origin="4189.6063,3088.9567" net="" c_rotation="0" c_width="6" c_height="6"><ellipse cx="4189.6063" cy="3088.9567" rx="3" ry="3" stroke-width="0" c_etype="pad_hole"/></g><g c_partid="part_pad" c_etype="pinpart" layerid="11" id="gge89_11" c_origin="4189.6063,3078.9567" net="" c_rotation="0" c_width="6" c_height="6"><ellipse cx="4189.6063" cy="3078.9567" rx="3" ry="3" stroke-width="0" c_etype="pad_hole"/></g><g c_partid="part_pad" c_etype="pinpart" layerid="11" id="gge101_11" c_origin="4160.6693,3032.0276" net="" c_rotation="180" c_width="4.07" c_height="4.07"><polygon points="4162.7073 3034.0606 4158.6323 3034.0606 4158.6323 3029.9956 4162.7073 3029.9956" stroke-width="0" c_etype="pad_outer"/></g><g c_partid="part_pad" c_etype="pinpart" layerid="11" id="gge106_11" c_origin="4170.6693,3032.0276" net="" c_rotation="180" c_width="4.07" c_height="4.07"><polygon points="4172.7073 3034.0606 4168.6323 3034.0606 4168.6323 3029.9956 4172.7073 3029.9956" stroke-width="0" c_etype="pad_outer"/></g><g c_partid="part_pad" c_etype="pinpart" layerid="11" id="gge119_11" c_origin="4197.1654,3032.0276" net="" c_rotation="90" c_width="7.874" c_height="7.874"><ellipse cx="4197.1654" cy="3032.0276" rx="3.937" ry="3.937" stroke-width="0" c_etype="pad_hole"/></g><g c_partid="part_pad" c_etype="pinpart" layerid="11" id="gge124_11" c_origin="4197.1654,3114.5276" net="" c_rotation="90" c_width="7.874" c_height="7.874"><ellipse cx="4197.1654" cy="3114.5276" rx="3.937" ry="3.937" stroke-width="0" c_etype="pad_hole"/></g></g><g id="bottomSilkLayer" fill="#FFFFFF" stroke="#FFFFFF"><polyline points="4208.6654 3041.0276 4208.6654 3026.5276 4186.1654 3026.5276 4185.6654 3026.7348 4185.6654 3040.5276" stroke-width="0.7874" c_shapetype="line" stroke-linecap="round" fill="none" layerid="4" net="" id="gge118_4" locked="0"/><g c_partid="part_pcbtext" c_etype="" c_origin="4146.1653,3075.7779" c_rotation="90" c_mirror="1" id="gge113_4" locked="0" layerid="4" c_shapetype="group" display="none"><path c_fontsize="4.5" c_fontfamily="" c_text="CR2032 BATTERY HOLDER (THT)" d="M 4142.6453 3078.8479 L 4142.2353 3078.6379 L 4141.8253 3078.2279 L 4141.6253 3077.8279 L 4141.6253 3077.0079 L 4141.8253 3076.5979 L 4142.2353 3076.1879 L 4142.6453 3075.9779 L 4143.2653 3075.7779 L 4144.2853 3075.7779 L 4144.8953 3075.9779 L 4145.3053 3076.1879 L 4145.7153 3076.5979 L 4145.9153 3077.0079 L 4145.9153 3077.8279 L 4145.7153 3078.2279 L 4145.3053 3078.6379 L 4144.8953 3078.8479 M 4141.6253 3080.1979 L 4145.9153 3080.1979 M 4141.6253 3080.1979 L 4141.6253 3082.0379 L 4141.8253 3082.6479 L 4142.0353 3082.8579 L 4142.4453 3083.0579 L 4142.8553 3083.0579 L 4143.2653 3082.8579 L 4143.4653 3082.6479 L 4143.6653 3082.0379 L 4143.6653 3080.1979 M 4143.6653 3081.6279 L 4145.9153 3083.0579 M 4142.6453 3084.6179 L 4142.4453 3084.6179 L 4142.0353 3084.8179 L 4141.8253 3085.0279 L 4141.6253 3085.4279 L 4141.6253 3086.2479 L 4141.8253 3086.6579 L 4142.0353 3086.8679 L 4142.4453 3087.0679 L 4142.8553 3087.0679 L 4143.2653 3086.8679 L 4143.8753 3086.4579 L 4145.9153 3084.4079 L 4145.9153 3087.2779 M 4141.6253 3089.8479 L 4141.8253 3089.2379 L 4142.4453 3088.8279 L 4143.4653 3088.6279 L 4144.0753 3088.6279 L 4145.1053 3088.8279 L 4145.7153 3089.2379 L 4145.9153 3089.8479 L 4145.9153 3090.2579 L 4145.7153 3090.8779 L 4145.1053 3091.2779 L 4144.0753 3091.4879 L 4143.4653 3091.4879 L 4142.4453 3091.2779 L 4141.8253 3090.8779 L 4141.6253 3090.2579 L 4141.6253 3089.8479 M 4141.6253 3093.2479 L 4141.6253 3095.4979 L 4143.2653 3094.2679 L 4143.2653 3094.8779 L 4143.4653 3095.2879 L 4143.6653 3095.4979 L 4144.2853 3095.6979 L 4144.6953 3095.6979 L 4145.3053 3095.4979 L 4145.7153 3095.0879 L 4145.9153 3094.4779 L 4145.9153 3093.8579 L 4145.7153 3093.2479 L 4145.5153 3093.0379 L 4145.1053 3092.8379 M 4142.6453 3097.2579 L 4142.4453 3097.2579 L 4142.0353 3097.4579 L 4141.8253 3097.6679 L 4141.6253 3098.0779 L 4141.6253 3098.8879 L 4141.8253 3099.2979 L 4142.0353 3099.5079 L 4142.4453 3099.7079 L 4142.8553 3099.7079 L 4143.2653 3099.5079 L 4143.8753 3099.0979 L 4145.9153 3097.0479 L 4145.9153 3099.9179 M 4141.6253 3104.4179 L 4145.9153 3104.4179 M 4141.6253 3104.4179 L 4141.6253 3106.2579 L 4141.8253 3106.8679 L 4142.0353 3107.0779 L 4142.4453 3107.2779 L 4142.8553 3107.2779 L 4143.2653 3107.0779 L 4143.4653 3106.8679 L 4143.6653 3106.2579 M 4143.6653 3104.4179 L 4143.6653 3106.2579 L 4143.8753 3106.8679 L 4144.0753 3107.0779 L 4144.4853 3107.2779 L 4145.1053 3107.2779 L 4145.5153 3107.0779 L 4145.7153 3106.8679 L 4145.9153 3106.2579 L 4145.9153 3104.4179 M 4141.6253 3110.2679 L 4145.9153 3108.6279 M 4141.6253 3110.2679 L 4145.9153 3111.8979 M 4144.4853 3109.2379 L 4144.4853 3111.2879 M 4141.6253 3114.6779 L 4145.9153 3114.6779 M 4141.6253 3113.2479 L 4141.6253 3116.1179 M 4141.6253 3118.8979 L 4145.9153 3118.8979 M 4141.6253 3117.4679 L 4141.6253 3120.3279 M 4141.6253 3121.6779 L 4145.9153 3121.6779 M 4141.6253 3121.6779 L 4141.6253 3124.3379 M 4143.6653 3121.6779 L 4143.6653 3123.3179 M 4145.9153 3121.6779 L 4145.9153 3124.3379 M 4141.6253 3125.6879 L 4145.9153 3125.6879 M 4141.6253 3125.6879 L 4141.6253 3127.5279 L 4141.8253 3128.1379 L 4142.0353 3128.3479 L 4142.4453 3128.5479 L 4142.8553 3128.5479 L 4143.2653 3128.3479 L 4143.4653 3128.1379 L 4143.6653 3127.5279 L 4143.6653 3125.6879 M 4143.6653 3127.1179 L 4145.9153 3128.5479 M 4141.6253 3129.8979 L 4143.6653 3131.5379 L 4145.9153 3131.5379 M 4141.6253 3133.1779 L 4143.6653 3131.5379 M 4141.6253 3137.6779 L 4145.9153 3137.6779 M 4141.6253 3140.5379 L 4145.9153 3140.5379 M 4143.6653 3137.6779 L 4143.6653 3140.5379 M 4141.6253 3143.1179 L 4141.8253 3142.7079 L 4142.2353 3142.2979 L 4142.6453 3142.0879 L 4143.2653 3141.8879 L 4144.2853 3141.8879 L 4144.8953 3142.0879 L 4145.3053 3142.2979 L 4145.7153 3142.7079 L 4145.9153 3143.1179 L 4145.9153 3143.9279 L 4145.7153 3144.3379 L 4145.3053 3144.7479 L 4144.8953 3144.9579 L 4144.2853 3145.1579 L 4143.2653 3145.1579 L 4142.6453 3144.9579 L 4142.2353 3144.7479 L 4141.8253 3144.3379 L 4141.6253 3143.9279 L 4141.6253 3143.1179 M 4141.6253 3146.5079 L 4145.9153 3146.5079 M 4145.9153 3146.5079 L 4145.9153 3148.9679 M 4141.6253 3150.3179 L 4145.9153 3150.3179 M 4141.6253 3150.3179 L 4141.6253 3151.7479 L 4141.8253 3152.3579 L 4142.2353 3152.7679 L 4142.6453 3152.9779 L 4143.2653 3153.1779 L 4144.2853 3153.1779 L 4144.8953 3152.9779 L 4145.3053 3152.7679 L 4145.7153 3152.3579 L 4145.9153 3151.7479 L 4145.9153 3150.3179 M 4141.6253 3154.5279 L 4145.9153 3154.5279 M 4141.6253 3154.5279 L 4141.6253 3157.1879 M 4143.6653 3154.5279 L 4143.6653 3156.1679 M 4145.9153 3154.5279 L 4145.9153 3157.1879 M 4141.6253 3158.5379 L 4145.9153 3158.5379 M 4141.6253 3158.5379 L 4141.6253 3160.3779 L 4141.8253 3160.9879 L 4142.0353 3161.1979 L 4142.4453 3161.3979 L 4142.8553 3161.3979 L 4143.2653 3161.1979 L 4143.4653 3160.9879 L 4143.6653 3160.3779 L 4143.6653 3158.5379 M 4143.6653 3159.9679 L 4145.9153 3161.3979 M 4140.8053 3167.3279 L 4141.2153 3166.9279 L 4141.8253 3166.5179 L 4142.6453 3166.1079 L 4143.6653 3165.8979 L 4144.4853 3165.8979 L 4145.5153 3166.1079 L 4146.3253 3166.5179 L 4146.9453 3166.9279 L 4147.3553 3167.3279 M 4141.6253 3170.1179 L 4145.9153 3170.1179 M 4141.6253 3168.6779 L 4141.6253 3171.5479 M 4141.6253 3172.8979 L 4145.9153 3172.8979 M 4141.6253 3175.7579 L 4145.9153 3175.7579 M 4143.6653 3172.8979 L 4143.6653 3175.7579 M 4141.6253 3178.5379 L 4145.9153 3178.5379 M 4141.6253 3177.1079 L 4141.6253 3179.9779 M 4140.8053 3181.3279 L 4141.2153 3181.7279 L 4141.8253 3182.1379 L 4142.6453 3182.5479 L 4143.6653 3182.7579 L 4144.4853 3182.7579 L 4145.5153 3182.5479 L 4146.3253 3182.1379 L 4146.9453 3181.7279 L 4147.3553 3181.3279" fill="none" stroke-width="0.6" c_note="note_name" style=""/></g><g c_partid="part_pcbtext" c_etype="" c_origin="4153.1654,3075.7776" c_rotation="90" c_mirror="1" id="gge115_4" locked="0" layerid="4" c_shapetype="group"><path c_fontsize="4.5" c_fontfamily="" c_text="B1" d="M 4148.6254 3075.7776 L 4152.9154 3075.7776 M 4148.6254 3075.7776 L 4148.6254 3077.6176 L 4148.8254 3078.2276 L 4149.0354 3078.4376 L 4149.4454 3078.6376 L 4149.8554 3078.6376 L 4150.2654 3078.4376 L 4150.4654 3078.2276 L 4150.6654 3077.6176 M 4150.6654 3075.7776 L 4150.6654 3077.6176 L 4150.8754 3078.2276 L 4151.0754 3078.4376 L 4151.4854 3078.6376 L 4152.1054 3078.6376 L 4152.5154 3078.4376 L 4152.7154 3078.2276 L 4152.9154 3077.6176 L 4152.9154 3075.7776 M 4149.4454 3079.9876 L 4149.2354 3080.3976 L 4148.6254 3081.0176 L 4152.9154 3081.0176" fill="none" stroke-width="0.6" c_note="note_pre" style=""/></g><path d="M 4196.9154 3126.0276 A 43.25072 43.25072 0 1 1 4197.6854 3126.0176" locked="0" c_shapetype="line" fill="none" stroke-width="1" c_helper_type="arc2" net="" layerid="4" id="gge117_4"/></g></g></g></svg>